<svg width="0" height="0" class="hidden">
  <symbol xmlns="http://www.w3.org/2000/svg" fill="none" viewBox="0 0 24 25" id="bread">
    <path d="M2 16.3101C2 15.7091 2.133 15.1126 2.4855 14.6261C3.5225 13.1936 6.3355 10.2686 12 10.2686C17.665 10.2686 20.4775 13.1941 21.5145 14.6261C21.867 15.1126 22 15.7091 22 16.3101C22 17.3599 21.5829 18.3668 20.8406 19.1091C20.0982 19.8515 19.0914 20.2686 18.0415 20.2686H5.9585C4.90864 20.2686 3.90178 19.8515 3.15942 19.1091C2.41706 18.3668 2 17.3599 2 16.3101Z" stroke="currentColor" stroke-width="2" stroke-linecap="round" stroke-linejoin="round"></path>
    <path d="M6 4.76855V6.76855M7 11.2686V13.2686M18 4.76855V6.76855M17 11.2686V13.2686M12 3.76855V6.76855M12 10.2686V14.2686M12 10.2686C15.904 10.2686 18.453 11.6586 20 12.9901M12 10.2686C8.096 10.2686 5.547 11.6581 4 12.9901" stroke="currentColor" stroke-width="2" stroke-linecap="round"></path>
  </symbol>
  <symbol xmlns="http://www.w3.org/2000/svg" fill="none" viewBox="0 0 24 24" id="clock">
    <path stroke="currentColor" stroke-linecap="round" stroke-linejoin="round" stroke-width="1.8" d="M12 8v4l3 3m6-3a9 9 0 1 1-18 0 9 9 0 0 1 18 0Z"></path>
  </symbol>
  <symbol xmlns="http://www.w3.org/2000/svg" fill="none" viewBox="0 0 24 24" id="map-pin">
    <path stroke="currentColor" stroke-linecap="round" stroke-linejoin="round" stroke-width="1.8" d="M18.75 16.518c1.4.595 2.25 1.376 2.25 2.232 0 1.864-4.03 3.375-9 3.375s-9-1.51-9-3.375c0-.855.85-1.638 2.25-2.232"></path>
    <path stroke="currentColor" stroke-linecap="round" stroke-linejoin="round" stroke-width="1.8" d="M17.625 8c0 3.48-5.625 9.625-5.625 9.625S6.375 11.479 6.375 8 8.894 1.875 12 1.875 17.625 4.521 17.625 8Z"></path>
    <path fill="currentColor" stroke="currentColor" stroke-linecap="round" stroke-linejoin="round" stroke-width="1.8" d="M12 8.625a1.125 1.125 0 1 0 0-2.25 1.125 1.125 0 0 0 0 2.25Z"></path>
  </symbol>
  <symbol xmlns="http://www.w3.org/2000/svg" fill="none" viewBox="0 0 21 20" id="facebook">
    <path fill="currentColor" stroke="currentColor" stroke-width="1.333" d="M12.288 10.15h-.666v8.35H9.703v-8.355H7V8.209h2.697V5.143c0-1.263.37-2.158.934-2.735.563-.576 1.39-.908 2.447-.908h.003c.585-.002 1.17.02 1.752.068v1.643h-.986c-.75 0-1.38.186-1.787.687-.38.47-.438 1.07-.438 1.568v2.749h3.031l-.24 1.936h-2.125Z"></path>
  </symbol>
  <symbol xmlns="http://www.w3.org/2000/svg" fill="none" viewBox="0 0 20 20" id="whatsapp">
    <path fill="currentColor" d="M16.636 3.35a9.282 9.282 0 0 0-6.6-2.726C4.894.626.704 4.795.7 9.915c0 1.639.431 3.234 1.245 4.646l-1.32 4.815 4.949-1.291a9.372 9.372 0 0 0 4.461 1.13h.005c5.142 0 9.33-4.17 9.335-9.292a9.22 9.22 0 0 0-2.74-6.571Zm-6.6 14.292a7.764 7.764 0 0 1-3.951-1.078l-.283-.17-2.936.767.784-2.85-.183-.295A7.662 7.662 0 0 1 2.28 9.909c0-4.25 3.481-7.716 7.759-7.716a7.753 7.753 0 0 1 7.169 4.767c.39.938.589 1.943.586 2.957-.005 4.264-3.485 7.725-7.76 7.725Zm4.255-5.782c-.232-.116-1.377-.678-1.593-.757-.214-.076-.37-.116-.524.116-.156.23-.604.757-.738.908-.134.156-.273.173-.506.059-.232-.118-.984-.361-1.874-1.155-.695-.615-1.16-1.377-1.299-1.608-.134-.232-.012-.356.104-.472.102-.103.232-.272.349-.405.117-.134.156-.232.233-.387.076-.157.04-.29-.018-.407-.059-.116-.524-1.26-.72-1.722-.189-.456-.38-.393-.524-.399-.135-.008-.291-.008-.448-.008a.861.861 0 0 0-.622.29c-.215.232-.814.793-.814 1.938s.836 2.245.954 2.401c.115.156 1.64 2.498 3.982 3.506.553.24.989.382 1.33.49.558.178 1.063.151 1.466.094.447-.068 1.378-.563 1.575-1.105.193-.544.193-1.008.134-1.105-.058-.099-.214-.156-.447-.272Z"></path>
  </symbol>
  <symbol xmlns="http://www.w3.org/2000/svg" fill="none" viewBox="0 0 25 24" id="phone">
    <path stroke="currentColor" stroke-linecap="round" stroke-linejoin="round" stroke-width="1.8" d="M3.5 5a2 2 0 0 1 2-2h3.28a1 1 0 0 1 .948.684l1.498 4.493a1 1 0 0 1-.502 1.21l-2.257 1.13a11.042 11.042 0 0 0 5.516 5.516l1.13-2.257a1 1 0 0 1 1.21-.502l4.493 1.498a1 1 0 0 1 .684.949V19a2 2 0 0 1-2 2h-1c-8.284 0-15-6.716-15-15V5Z"></path>
  </symbol>
  <symbol xmlns="http://www.w3.org/2000/svg" fill="none" viewBox="0 0 49 48" id="truck">
    <path stroke="currentColor" stroke-width="3" d="M26.5 32V12a2 2 0 0 0-2-2h-16a2 2 0 0 0-2 2v20a2 2 0 0 0 2 2h2m16-2a2 2 0 0 1-2 2h-6m8-2V16a2 2 0 0 1 2-2h5.172a2 2 0 0 1 1.414.586l6.828 6.828a2 2 0 0 1 .586 1.414V32a2 2 0 0 1-2 2h-2m-12-2a2 2 0 0 0 2 2h2m-20 0a4 4 0 0 0 8 0m-8 0a4 4 0 0 1 8 0m12 0a4 4 0 0 0 8 0m-8 0a4 4 0 0 1 8 0"></path>
  </symbol>
  <symbol xmlns="http://www.w3.org/2000/svg" fill="none" viewBox="0 0 24 24" id="instagram">
    <path fill="currentColor" d="M7.03.084c-1.277.06-2.149.264-2.91.563a5.874 5.874 0 0 0-2.124 1.388 5.878 5.878 0 0 0-1.38 2.127C.321 4.926.12 5.8.064 7.076.008 8.354-.005 8.764.001 12.023c.007 3.259.021 3.667.083 4.947.061 1.277.264 2.149.563 2.911.308.789.72 1.457 1.388 2.123a5.872 5.872 0 0 0 2.129 1.38c.763.295 1.636.496 2.913.552 1.278.056 1.689.069 4.947.063 3.257-.007 3.668-.021 4.947-.082 1.28-.06 2.147-.265 2.91-.563a5.881 5.881 0 0 0 2.123-1.388 5.881 5.881 0 0 0 1.38-2.129c.295-.763.496-1.636.551-2.912.056-1.28.07-1.69.063-4.948-.006-3.258-.02-3.667-.081-4.947-.06-1.28-.264-2.148-.564-2.911a5.892 5.892 0 0 0-1.387-2.123 5.857 5.857 0 0 0-2.128-1.38C19.074.322 18.202.12 16.924.066 15.647.009 15.236-.006 11.977 0 8.718.008 8.31.021 7.03.084m.14 21.693c-1.17-.05-1.805-.245-2.228-.408a3.736 3.736 0 0 1-1.382-.895 3.695 3.695 0 0 1-.9-1.378c-.165-.423-.363-1.058-.417-2.228-.06-1.264-.072-1.644-.08-4.848-.006-3.204.006-3.583.061-4.848.05-1.169.246-1.805.408-2.228.216-.561.477-.96.895-1.382a3.705 3.705 0 0 1 1.379-.9c.423-.165 1.057-.361 2.227-.417 1.265-.06 1.644-.072 4.848-.08 3.203-.006 3.583.006 4.85.062 1.168.05 1.804.244 2.227.408.56.216.96.475 1.382.895.421.42.681.817.9 1.378.165.422.362 1.056.417 2.227.06 1.265.074 1.645.08 4.848.005 3.203-.006 3.583-.061 4.848-.051 1.17-.245 1.805-.408 2.23-.216.56-.477.96-.896 1.38a3.705 3.705 0 0 1-1.378.9c-.422.165-1.058.362-2.226.418-1.266.06-1.645.072-4.85.079-3.204.007-3.582-.006-4.848-.06m9.783-16.192a1.44 1.44 0 1 0 1.437-1.442 1.44 1.44 0 0 0-1.437 1.442M5.839 12.012a6.161 6.161 0 1 0 12.323-.024 6.162 6.162 0 0 0-12.323.024M8 12.008A4 4 0 1 1 12.008 16 4 4 0 0 1 8 12.008"></path>
  </symbol>
  <symbol xmlns="http://www.w3.org/2000/svg" fill="none" viewBox="0 0 41 40" id="shop">
    <path fill="currentColor" fill-rule="evenodd" d="M12.007 0h16.986c1.06 0 1.961 0 2.703.076.793.082 1.526.26 2.218.689.69.428 1.178 1.002 1.605 1.674.4.633.804 1.436 1.279 2.385l.03.062c.018.037.035.072.05.111l2.61 6.6c.313.786.657 1.767.757 2.768.102 1.027-.037 2.2-.843 3.218a5.122 5.122 0 0 1-2.623 1.758V37.21h2.326a1.395 1.395 0 0 1 0 2.791H1.895a1.395 1.395 0 1 1 0-2.79h2.326V19.34a5.124 5.124 0 0 1-2.623-1.756c-.804-1.02-.945-2.195-.843-3.219.1-1.004.446-1.983.755-2.77l2.612-6.6c.015-.039.032-.076.05-.112l.03-.06c.475-.949.877-1.754 1.278-2.385.428-.672.916-1.246 1.606-1.674C7.778.337 8.511.158 9.302.076 10.046 0 10.947 0 12.007 0Zm19.656 17.931a5.117 5.117 0 0 0 2.325 1.41V37.21h-7.441v-5.176c0-.818 0-1.525-.053-2.102-.055-.614-.178-1.22-.508-1.791a4.188 4.188 0 0 0-1.533-1.534c-.57-.329-1.177-.452-1.79-.507-.58-.052-1.285-.052-2.102-.052h-.12c-.82 0-1.526 0-2.103.052-.614.055-1.22.178-1.791.508a4.186 4.186 0 0 0-1.534 1.533c-.329.57-.452 1.177-.507 1.79-.053.58-.053 1.285-.053 2.102v5.177H7.013V19.343a5.117 5.117 0 0 0 2.325-1.414 5.1 5.1 0 0 0 3.721 1.606 5.095 5.095 0 0 0 3.721-1.606 5.1 5.1 0 0 0 3.721 1.606 5.095 5.095 0 0 0 3.72-1.606 5.102 5.102 0 0 0 3.722 1.606 5.094 5.094 0 0 0 3.72-1.604ZM17.244 37.21h6.512v-5.116c0-.895 0-1.474-.041-1.91-.037-.42-.102-.572-.147-.648a1.395 1.395 0 0 0-.51-.51c-.074-.044-.229-.108-.647-.147a23.783 23.783 0 0 0-1.911-.04c-.895 0-1.474 0-1.91.04-.42.037-.572.102-.648.147a1.395 1.395 0 0 0-.51.51c-.045.074-.11.229-.147.647-.039.438-.04 1.016-.04 1.911v5.116Zm-6.511-22.79a2.326 2.326 0 1 0 4.65 0 1.395 1.395 0 1 1 2.791 0 2.325 2.325 0 1 0 4.652 0 1.395 1.395 0 1 1 2.79 0 2.326 2.326 0 1 0 4.651 0 1.396 1.396 0 0 1 2.791 0 2.327 2.327 0 0 0 4.153 1.438c.212-.268.316-.636.256-1.213-.06-.6-.28-1.28-.573-2.02l-2.59-6.546c-.498-.995-.831-1.656-1.14-2.14-.297-.468-.51-.671-.718-.8-.206-.13-.484-.228-1.036-.286-.584-.06-1.34-.061-2.486-.061H12.076c-1.148 0-1.903 0-2.486.061-.552.058-.83.158-1.036.287-.208.128-.42.33-.718.8-.31.483-.642 1.144-1.14 2.14l-2.59 6.544c-.293.74-.514 1.422-.573 2.02-.058.577.044.946.256 1.214a2.325 2.325 0 0 0 4.153-1.438 1.395 1.395 0 1 1 2.79 0Z" clip-rule="evenodd"></path>
  </symbol>
  <symbol xmlns="http://www.w3.org/2000/svg" fill="none" viewBox="0 0 24 25" id="wheat">
    <path stroke="currentColor" stroke-linecap="round" stroke-linejoin="round" stroke-width="2" d="m9.48 18.869 1.44 4.028m-1.44-4.028-3-.738m3 .738 1.834-2.486M3.394 1.93l.583 1.612m1.046 10.543 3 .754 1.851-2.486m-6.291-2.297 3 .737 1.834-2.468M2.126 6.028l3 .738L6.977 4.28m9.326 13.56-.96 3.857m.96-3.857-1.937-2.126m1.937 2.126 2.691-.96m1.32-15.24-.377 1.543m-4.611 8.674 1.92 2.126 2.708-.977M16.286 8l1.92 2.126 2.708-.978m-3.668-5.005 1.92 2.125 2.708-.977"></path>
  </symbol>
</svg>