<svg xmlns="http://www.w3.org/2000/svg" fill="none" viewBox="0 0 192 48" shape-rendering="auto">
  <g fill="#FFECCC" clip-path="url(#a)" shape-rendering="auto">
    <path
      d="M54.718 41.605v4.58h-.466v-4.58h.466Zm1.97 4.579v-4.579h.648c.684 1.085 2.24 3.518 2.513 4.015h.007c-.04-.627-.036-1.323-.036-2.07v-1.945h.454v4.58h-.602a760.378 760.378 0 0 1-2.549-4.105h-.007c.034.565.029 1.283.029 2.111v1.993h-.457Zm5.556-4.579h1.564c1.264 0 2.13.877 2.13 2.248 0 1.371-.847 2.331-2.145 2.331h-1.551v-4.579h.002Zm.466 4.167h1.035c1.146 0 1.7-.815 1.7-1.905 0-.96-.502-1.851-1.7-1.851h-1.037v3.753l.002.003Zm11.043-2.512-1.148 1.745c-.55.831-.942 1.247-1.719 1.247a1.193 1.193 0 0 1-1.231-1.184c0-.579.29-.994 1.224-1.494.629-.384.913-.58.913-1.004 0-.338-.21-.665-.621-.665-.385 0-.65.245-.65.69 0 .29.205.554.573.907l2.716 2.683h-.62l-2.452-2.428c-.397-.382-.645-.692-.645-1.148 0-.548.375-1.066 1.087-1.066.627 0 1.04.46 1.04 1.027 0 .474-.28.774-1.085 1.252-.858.47-1.019.792-1.019 1.205 0 .442.366.819.79.819.518 0 .84-.194 1.422-1.105l.94-1.479h.482l.003-.002Zm7.492 1.669c-.21.749-.763 1.31-1.757 1.31-1.334 0-2.023-1.041-2.023-2.333 0-1.292.681-2.366 2.037-2.366 1.026 0 1.607.579 1.748 1.345h-.467c-.189-.552-.547-.937-1.305-.937-1.076 0-1.523.985-1.523 1.946 0 .96.433 1.938 1.547 1.938.724 0 1.071-.394 1.274-.903h.469Zm5.532-1.064c0 1.253-.682 2.384-2.102 2.384-1.31 0-2.058-1.04-2.058-2.355 0-1.316.741-2.356 2.106-2.356 1.265 0 2.054.98 2.054 2.324v.003Zm-3.668.012c0 1.025.546 1.962 1.588 1.962 1.123 0 1.585-.927 1.585-1.965 0-1.037-.524-1.918-1.578-1.918-1.11 0-1.597.914-1.597 1.92h.002Zm9.238.271c0-.876.007-1.736.026-2.204h-.021c-.19.672-1.028 2.797-1.583 4.24h-.435c-.419-1.143-1.286-3.515-1.494-4.248h-.017a46.8 46.8 0 0 1 .048 2.356v1.892h-.45v-4.579h.696c.576 1.503 1.293 3.458 1.458 4.003h.012c.105-.382.945-2.543 1.535-4.003h.681v4.58h-.459v-2.037h.003Zm5.18-.163h-2.3v1.787h2.52l-.064.413h-2.917v-4.58h2.874v.413h-2.412v1.549h2.3v.418Zm-.052-3.766-1.107.9h-.49l.985-.9h.612Zm2.278 3.881v2.084h-.466v-4.579h1.699c.916 0 1.401.495 1.401 1.213 0 .588-.341.958-.817 1.076.425.105.743.4.743 1.186v.185c0 .32-.021.735.06.92h-.461c-.084-.197-.072-.56-.072-.968v-.108c0-.706-.203-1.007-1.052-1.007h-1.035V44.1Zm0-.408h1.052c.753 0 1.095-.284 1.095-.846 0-.528-.342-.828-1.012-.828h-1.135v1.674Zm7.868 1.237c-.211.749-.763 1.31-1.758 1.31-1.334 0-2.022-1.041-2.022-2.333 0-1.292.681-2.366 2.037-2.366 1.025 0 1.606.579 1.747 1.345h-.466c-.189-.552-.547-.937-1.305-.937-1.076 0-1.523.985-1.523 1.946 0 .96.433 1.938 1.547 1.938.724 0 1.071-.394 1.274-.903h.469Zm2.082-3.324v4.58h-.466v-4.58h.466Zm5.811 2.26c0 1.253-.681 2.384-2.101 2.384-1.31 0-2.058-1.04-2.058-2.355 0-1.316.741-2.356 2.106-2.356 1.264 0 2.053.98 2.053 2.324v.003Zm-3.667.012c0 1.025.545 1.962 1.587 1.962 1.124 0 1.585-.927 1.585-1.965 0-1.037-.523-1.918-1.577-1.918-1.11 0-1.597.914-1.597 1.92h.002Zm7.664-2.272h1.564c1.265 0 2.13.877 2.13 2.248 0 1.371-.846 2.331-2.144 2.331h-1.552v-4.579h.002Zm.467 4.167h1.035c1.145 0 1.699-.815 1.699-1.905 0-.96-.502-1.851-1.699-1.851h-1.038v3.753l.003.003Zm7.633-1.787h-2.3v1.787h2.52l-.065.413h-2.916v-4.58h2.873v.413h-2.412v1.549h2.3v.418Zm4.109-2.38h1.674c.858 0 1.446.48 1.446 1.302 0 .82-.6 1.332-1.487 1.332h-1.162v1.943h-.471v-4.58.003Zm.471 2.226h1.167c.686 0 .995-.353.995-.91 0-.588-.393-.905-.971-.905h-1.191v1.815Zm4.306.865-.54 1.489h-.469l1.652-4.58h.564l1.721 4.58h-.502l-.552-1.49h-1.874Zm-.175-3.562v-.11c0-.452.211-.615.531-.615.395 0 .82.36 1.078.36.137 0 .218-.067.218-.305v-.079h.332v.127c0 .473-.196.632-.523.632-.381 0-.792-.37-1.086-.37-.119 0-.198.067-.198.25v.113h-.352v-.003Zm1.915 3.148c-.475-1.289-.724-1.937-.82-2.262h-.007c-.11.365-.392 1.16-.774 2.262h1.601Zm5.382-.297h-2.3v1.787h2.52l-.065.413h-2.917v-4.58h2.874v.413h-2.412v1.549h2.3v.418Zm1.946.951c.131.58.521.912 1.231.912.779 0 1.08-.381 1.08-.85 0-.468-.227-.783-1.188-1.02-1.014-.25-1.41-.591-1.41-1.244 0-.654.463-1.196 1.46-1.196.997 0 1.475.622 1.535 1.198h-.478c-.093-.454-.383-.797-1.076-.797-.612 0-.949.28-.949.759 0 .477.28.653 1.102.857 1.291.32 1.497.833 1.497 1.4 0 .704-.514 1.282-1.595 1.282-1.143 0-1.594-.65-1.683-1.304h.478l-.004.003Zm9.526-.951h-2.3v1.787h2.52l-.064.413h-2.917v-4.58h2.873v.413h-2.412v1.549h2.3v.418Zm4.107-2.38h1.564c1.264 0 2.13.877 2.13 2.248 0 1.371-.847 2.331-2.145 2.331h-1.551v-4.579h.002Zm.466 4.167h1.036c1.145 0 1.699-.815 1.699-1.905 0-.96-.502-1.851-1.699-1.851h-1.038v3.753l.002.003Zm7.634-1.787h-2.3v1.787h2.52l-.065.413h-2.917v-4.58h2.874v.413h-2.412v1.549h2.3v.418Zm1.759-2.38h.466v4.164h2.417l-.074.413h-2.809v-4.58.003Zm5.817-1.314-1.107.9h-.49l.985-.9h.612Zm-1.114 1.314v4.58h-.467v-4.58h.467Zm5.433 3.324c-.21.749-.762 1.31-1.757 1.31-1.334 0-2.022-1.041-2.022-2.333 0-1.292.681-2.366 2.037-2.366 1.025 0 1.606.579 1.747 1.345h-.466c-.189-.552-.547-.937-1.305-.937-1.076 0-1.523.985-1.523 1.946 0 .96.433 1.938 1.547 1.938.724 0 1.071-.394 1.274-.903h.468Zm2.08-3.324v4.58h-.466v-4.58h.466Zm2.477 3.091-.54 1.489h-.469l1.652-4.58h.564l1.721 4.58h-.502l-.552-1.49h-1.874Zm1.74-.413c-.475-1.29-.724-1.938-.82-2.263h-.007c-.11.365-.392 1.16-.774 2.263h1.601Zm2.809.653c.132.58.521.912 1.231.912.78 0 1.081-.381 1.081-.85 0-.468-.227-.783-1.188-1.02-1.014-.25-1.411-.591-1.411-1.244 0-.654.464-1.196 1.461-1.196.997 0 1.475.622 1.535 1.198h-.478c-.093-.454-.383-.797-1.076-.797-.612 0-.949.28-.949.759 0 .477.28.653 1.102.857 1.291.32 1.499.833 1.499 1.4 0 .704-.514 1.282-1.595 1.282-1.142 0-1.594-.65-1.683-1.304h.478l-.007.003ZM52.27 32.12c0-.582.34-.822.682-1.096.342-.274.681-.547.681-1.128V12.992c0-.615-.34-.855-.681-1.129-.34-.274-.682-.547-.682-1.095 0-.581.443-.958 1.057-.958h11.174c5.62 0 8.857 2.156 8.857 5.852 0 2.567-1.499 4.414-4.803 5.168 3.952.821 5.826 2.841 5.826 5.853 0 4.036-3.304 6.4-8.96 6.4H53.33c-.612 0-1.056-.378-1.056-.959l-.003-.005Zm7.426-20.19v8.043h3.712c2.59 0 3.816-1.61 3.816-3.593 0-1.983-1.26-4.447-4.258-4.447h-3.27v-.003Zm0 10.13v7.254c1.123 1.096 2.589 1.746 4.088 1.746 3.031 0 4.463-1.813 4.463-4.073 0-2.26-1.363-4.927-4.7-4.927h-3.851Zm15.976 2.29c0-5.441 3.646-9.067 9.13-9.067 4.088 0 6.95 1.95 6.95 4.79 0 3.526-4.292 4.928-9.948 5.099.715 2.36 2.247 4.447 4.94 4.447 1.804 0 2.725-.854 3.44-1.472.475-.41.817-.65 1.156-.65.376 0 .682.24.682.958 0 2.464-2.895 4.961-7.392 4.961-5.348 0-8.96-3.592-8.96-9.068l.002.003Zm5.79-.684c3.883-.17 5.245-1.54 5.245-3.559 0-1.745-.92-3.148-2.419-3.148-1.975 0-2.998 2.224-2.998 4.654 0 .65.034 1.335.17 2.053h.002Zm11.719 8.523c0-.514.306-.752.612-.992.375-.274.648-.547.648-1.095V12.204c0-.615-.306-.888-.648-1.129-.306-.24-.612-.477-.612-1.025 0-.514.409-.925.954-.925h4.666c.785 0 1.294.514 1.294 1.336v19.641c0 .548.306.821.648 1.095.306.24.612.48.612.992 0 .511-.376.89-.954.89h-6.235c-.578 0-.987-.376-.987-.89h.002Zm9.536 0c0-.514.306-.752.612-.992.376-.274.648-.547.648-1.095V12.204c0-.615-.306-.888-.648-1.129-.306-.24-.612-.477-.612-1.025 0-.514.409-.925.954-.925h4.667c.784 0 1.293.514 1.293 1.336v19.641c0 .548.306.821.648 1.095.306.24.612.48.612.992 0 .511-.375.89-.954.89h-6.235c-.578 0-.987-.376-.987-.89h.002Zm8.552 4.207c0-1.301.884-2.224 2.452-2.224 1.296 0 2.044.752 2.656 1.61.342.547.682 1.095 1.396 1.095.921 0 1.636-1.096 2.317-2.668l.067-.207-6.95-15.398c-.203-.41-.545-.684-1.02-.958-.443-.274-.851-.548-.851-1.165 0-.478.375-.855.987-.855h7.153c.578 0 .953.377.953.855 0 .548-.339.821-.681 1.028-.442.274-.715.547-.511 1.095l3.679 8.794 3.543-8.794c.203-.547-.17-.788-.648-1.095-.409-.204-.818-.514-.818-1.028 0-.478.409-.855.954-.855h3.576c.579 0 .954.377.954.855 0 .615-.409.891-.887 1.129-.442.274-.784.514-.987.992l-6.78 16.116c-1.021 2.43-2.18 4.858-5.859 4.858-2.589 0-4.7-1.199-4.7-3.182l.005.002Zm22.072-4.276c0-.582.342-.822.682-1.096.339-.274.681-.547.681-1.128V12.992c0-.615-.34-.855-.681-1.129-.34-.274-.682-.547-.682-1.095 0-.581.443-.958 1.057-.958h10.629c5.553 0 9.232 2.978 9.232 7.699s-3.679 7.94-9.369 7.94h-4.121v4.447c0 .58.409.854.851 1.128.375.24.748.514.748 1.095s-.408.959-1.09.959h-6.88c-.612 0-1.057-.378-1.057-.959Zm7.428-20.19v10.267c1.023.751 2.247 1.232 3.337 1.232 2.759 0 4.019-1.984 4.019-4.484 0-2.771-1.566-7.015-5.348-7.015h-2.01.002Zm14.372 16.904c0-4.414 5.315-5.782 10.457-5.852v-2.6c0-2.532-1.193-3.423-2.692-3.423-1.669 0-1.975 1.129-2.247 2.327-.273 1.302-.545 2.6-2.52 2.6-1.602 0-2.383-.924-2.383-2.19 0-2.36 2.861-4.413 7.528-4.413 4.666 0 7.97 1.916 7.97 6.4v8.383c0 .615.376.925.715 1.162.306.24.579.445.579.855 0 .855-1.227 1.336-2.759 1.336-1.975 0-3.338-.855-3.883-2.224-1.362 1.402-3.201 2.224-5.381 2.224-3.201 0-5.381-1.746-5.381-4.585h-.003Zm8.552 1.643c.748 0 1.429-.24 1.941-.685l-.034-.067v-4.517c-.442-.307-.954-.478-1.601-.478-1.942 0-3.407.992-3.407 2.771 0 1.78 1.396 2.978 3.101 2.978v-.002Zm9.947-6.127c0-5.475 3.646-9.067 9.197-9.067 5.551 0 9.163 3.592 9.163 9.068 0 5.475-3.646 9.068-9.163 9.068-5.518 0-9.197-3.593-9.197-9.068Zm12.773 2.397c0-3.936-1.499-9.786-4.327-9.786-1.874 0-2.828 2.224-2.828 5.032 0 3.969 1.43 9.752 4.327 9.752 1.635 0 2.828-1.78 2.828-4.995v-.003Zm-18.367-15.832c-.655-1.002-1.535-1.448-2.412-1.23-.775.192-1.413.891-1.485 1.626-.055.56.239 1.033.801 1.294.177.082.273.02.316-.029.04-.045.098-.149-.005-.321-.211-.36-.251-.668-.113-.87.127-.185.402-.269.701-.216.421.075.739.38.853.817.115.437-.296.929-.743 1.08-.325.11-.937.024-1.583-.067-1.329-.187-2.983-.418-3.935.65-.071.08-.236.267-.114.416.124.147.334.015.425-.04.935-.584 1.925-.229 2.881.115.198.072.401.144.6.206.49.154.961.23 1.401.23.951 0 1.754-.355 2.264-1.034.597-.793.655-1.85.146-2.63l.002.003ZM38.759 31.399h-.302a19.35 19.35 0 0 0-1.587.086c-6.938.658-12.833 4.907-15.828 10.874-.163.324-.316.65-.462.985a21.54 21.54 0 0 0-.461-.985c-2.996-5.968-8.893-10.216-15.828-10.874a19.35 19.35 0 0 0-1.588-.086h-.301c-.461 0-.918.014-1.37.048l.065.367c.08.43.177.855.284 1.273 2.032 7.889 8.757 13.878 17.002 14.79a19.673 19.673 0 0 0 1.893.12h.603a19.673 19.673 0 0 0 1.893-.12c8.248-.912 14.97-6.901 17.003-14.79a20.43 20.43 0 0 0 .349-1.643 19.875 19.875 0 0 0-1.37-.047l.005.002Zm-19.2 14.913c-.28-.015-.559-.036-.836-.065-7.49-.764-13.634-6.093-15.633-13.174 7.33.273 13.548 4.906 16.166 11.392a17.553 17.553 0 0 1 .638 1.864c-.11-.005-.222-.01-.332-.017h-.003Zm2.879-.067c-.278.028-.557.05-.837.064-.11.008-.22.012-.332.017.055-.197.115-.391.177-.586.136-.432.291-.86.461-1.277 2.618-6.487 8.836-11.119 16.165-11.393-1.998 7.08-8.144 12.41-15.632 13.175h-.002ZM7.36 16.46v2.836a4.133 4.133 0 0 0-1.652 1.314v-4.15c0-.416-.15-.795-.401-1.086a1.64 1.64 0 0 0-1.25-.576c-.914 0-1.653.744-1.653 1.66v6.238a3.313 3.313 0 0 0 .95 2.327c.014.014.026.029.04.04l.672.676.585.588a3.32 3.32 0 0 1 1.06 2.435v2.07a19.748 19.748 0 0 0-1.652-.2v-1.87a1.656 1.656 0 0 0-.543-1.23L2.29 26.301l-.168-.168a4.888 4.888 0 0 1-.485-.6 4.975 4.975 0 0 1-.882-2.836v-6.24a3.315 3.315 0 0 1 3.306-3.321 3.29 3.29 0 0 1 2.362.997 3.323 3.323 0 0 1 .944 2.322l-.007.005Z"
      shape-rendering="auto" />
    <path
      d="M13.97 25.455v8.67a20.684 20.684 0 0 0-1.652-1.014v-7.656a3.33 3.33 0 0 0-.968-2.348l-.693-.697-.383-.384a1.638 1.638 0 0 0-1.499-.572 1.653 1.653 0 0 0-1.413 1.643c0 .459.185.874.483 1.174l.467.469.698.7-.859.863-.31.312-.854-.86s.022-.007.031-.014a3.33 3.33 0 0 1 .684-5.696 3.3 3.3 0 0 1 3.5.56l.287.287 1.03 1.035a4.974 4.974 0 0 1 1.454 3.52l-.003.008ZM33.8 16.46v2.836a4.133 4.133 0 0 1 1.652 1.314v-4.15c0-.416.15-.795.402-1.086a1.64 1.64 0 0 1 1.25-.576c.913 0 1.652.744 1.652 1.66v6.238a3.313 3.313 0 0 1-.949 2.327c-.014.014-.026.029-.04.04l-.672.676-.586.588a3.319 3.319 0 0 0-1.06 2.435v2.07a19.755 19.755 0 0 1 1.652-.2v-1.87a1.656 1.656 0 0 1 .544-1.23l1.226-1.231.167-.168c.177-.188.34-.387.486-.6a4.976 4.976 0 0 0 .882-2.836v-6.24a3.315 3.315 0 0 0-3.307-3.321c-.925 0-1.761.382-2.361.997a3.324 3.324 0 0 0-.945 2.322l.007.005Z"
      shape-rendering="auto" />
    <path
      d="M27.19 25.455v8.67a20.684 20.684 0 0 1 1.652-1.014v-7.656a3.33 3.33 0 0 1 .968-2.348l.694-.697.382-.384a1.638 1.638 0 0 1 1.499-.572 1.652 1.652 0 0 1 1.413 1.643c0 .459-.184.874-.483 1.174l-.466.469-.698.7.858.863.31.312.854-.86s-.021-.007-.03-.014a3.33 3.33 0 0 0-1.13-5.852 3.3 3.3 0 0 0-3.054.715l-.287.288-1.03 1.035a4.974 4.974 0 0 0-1.454 3.52l.002.008Zm-1.958-13.726-.021.019c-.21.211-.428.401-.65.584-2.18 1.733-5.432 2.958-8.387 2.72-.036 0-.071-.005-.107-.01a.385.385 0 0 1-.146-.201.4.4 0 0 1-.017-.25c.024-.026.05-.053.077-.077 2.11-2.089 5.383-3.251 8.164-3.33.289 0 .576.002.872.028h.029c.072.015.148.101.191.219.043.118.038.235-.007.29l.002.008Zm.003 8.299s-.015.015-.022.02a8.217 8.217 0 0 1-.65.583c-2.18 1.734-5.431 2.958-8.386 2.72a.787.787 0 0 1-.108-.009.401.401 0 0 1-.148-.202.4.4 0 0 1-.017-.25c.024-.023.05-.05.077-.074 2.11-2.09 5.383-3.251 8.164-3.33.289 0 .576.002.872.028h.029c.07.015.148.099.191.219.043.117.038.235-.007.29l.005.005Zm0 8.299s-.015.015-.022.02a8.238 8.238 0 0 1-.65.583c-2.18 1.734-5.431 2.959-8.386 2.721-.036 0-.072-.005-.108-.01a.4.4 0 0 1-.148-.201.4.4 0 0 1-.017-.25l.077-.075c2.11-2.089 5.383-3.251 8.164-3.33.289 0 .576.002.872.029h.029c.07.014.148.098.191.218.043.118.038.235-.007.29l.005.005ZM29.82 6.424c-.306.062-.61.108-.901.151l-.201.029a10.157 10.157 0 0 1 2.328 3.91 9.84 9.84 0 0 1 .476 2.699c.01.365.031 1.097.046 1.462.043 1.422.11 2.997.179 4.41h.808c.084-1.415.124-2.988.18-4.41.006-.247.028-.86.033-1.102.088-2.817-.81-5.314-2.34-7.293-.206.055-.41.1-.606.141l-.002.003Zm-1.277-2.07a12.673 12.673 0 0 0-11.05-2.445c-5.17 1.206-9.301 6.066-9.103 11.484.01.338.024.941.039 1.285.05 1.421.098 2.997.181 4.409h.808c.053-.98.091-1.96.132-2.94.029-.83.072-2.11.093-2.932.194-5.77 5.312-10.122 10.94-10.055a11.121 11.121 0 0 1 6.273 1.878c.55-.314 1.128-.504 1.69-.684h-.003Z"
      shape-rendering="auto" />
    <path
      d="M25.715 7.113c-.076.175.158.31.28.163a3.29 3.29 0 0 1 1.415-.991c.734-.24 1.518-.277 2.293-.437.794-.161 1.597-.4 2.25-.983a3.071 3.071 0 0 0 .982-2.581c-.072-.76-.581-1.518-1.262-1.88A3.34 3.34 0 0 0 30.12 0a2.48 2.48 0 0 0-1.202.295c-.564.305-.959.92-.99 1.557-.048.468.067.994.42 1.332.261.252.57.356.835.392.17.024.253-.195.117-.296-.234-.173-.425-.393-.461-.677-.031-.569.349-1.07.942-1.07h.043c.406.009.977.155 1.293.465.464.49.265 1.371-.155 1.83-.388.42-.995.663-1.564.864-.767.274-1.597.466-2.323.901-.579.358-1.081.893-1.358 1.52h-.003Z"
      shape-rendering="auto" />
  </g>
  <defs>
    <clipPath id="a">
      <path fill="#fff" d="M.75 0H192v48H.75z" shape-rendering="auto" />
    </clipPath>
  </defs>
</svg>