<svg viewBox="0 0 24 25" fill="none" xmlns="http://www.w3.org/2000/svg">
  <path
    d="M2 16.3101C2 15.7091 2.133 15.1126 2.4855 14.6261C3.5225 13.1936 6.3355 10.2686 12 10.2686C17.665 10.2686 20.4775 13.1941 21.5145 14.6261C21.867 15.1126 22 15.7091 22 16.3101C22 17.3599 21.5829 18.3668 20.8406 19.1091C20.0982 19.8515 19.0914 20.2686 18.0415 20.2686H5.9585C4.90864 20.2686 3.90178 19.8515 3.15942 19.1091C2.41706 18.3668 2 17.3599 2 16.3101Z"
    stroke="currentColor" stroke-width="2" stroke-linecap="round" stroke-linejoin="round" />
  <path
    d="M6 4.76855V6.76855M7 11.2686V13.2686M18 4.76855V6.76855M17 11.2686V13.2686M12 3.76855V6.76855M12 10.2686V14.2686M12 10.2686C15.904 10.2686 18.453 11.6586 20 12.9901M12 10.2686C8.096 10.2686 5.547 11.6581 4 12.9901"
    stroke="currentColor" stroke-width="2" stroke-linecap="round" />
</svg>