<svg xmlns="http://www.w3.org/2000/svg" fill="none" viewBox="0 0 41 40">
  <path fill="currentColor" fill-rule="evenodd" d="M12.007 0h16.986c1.06 0 1.961 0 2.703.076.793.082 1.526.26 2.218.689.69.428 1.178 1.002 1.605 1.674.4.633.804 1.436 1.279 2.385l.03.062c.018.037.035.072.05.111l2.61 6.6c.313.786.657 1.767.757 2.768.102 1.027-.037 2.2-.843 3.218a5.122 5.122 0 0 1-2.623 1.758V37.21h2.326a1.395 1.395 0 0 1 0 2.791H1.895a1.395 1.395 0 1 1 0-2.79h2.326V19.34a5.124 5.124 0 0 1-2.623-1.756c-.804-1.02-.945-2.195-.843-3.219.1-1.004.446-1.983.755-2.77l2.612-6.6c.015-.039.032-.076.05-.112l.03-.06c.475-.949.877-1.754 1.278-2.385.428-.672.916-1.246 1.606-1.674C7.778.337 8.511.158 9.302.076 10.046 0 10.947 0 12.007 0Zm19.656 17.931a5.117 5.117 0 0 0 2.325 1.41V37.21h-7.441v-5.176c0-.818 0-1.525-.053-2.102-.055-.614-.178-1.22-.508-1.791a4.188 4.188 0 0 0-1.533-1.534c-.57-.329-1.177-.452-1.79-.507-.58-.052-1.285-.052-2.102-.052h-.12c-.82 0-1.526 0-2.103.052-.614.055-1.22.178-1.791.508a4.186 4.186 0 0 0-1.534 1.533c-.329.57-.452 1.177-.507 1.79-.053.58-.053 1.285-.053 2.102v5.177H7.013V19.343a5.117 5.117 0 0 0 2.325-1.414 5.1 5.1 0 0 0 3.721 1.606 5.095 5.095 0 0 0 3.721-1.606 5.1 5.1 0 0 0 3.721 1.606 5.095 5.095 0 0 0 3.72-1.606 5.102 5.102 0 0 0 3.722 1.606 5.094 5.094 0 0 0 3.72-1.604ZM17.244 37.21h6.512v-5.116c0-.895 0-1.474-.041-1.91-.037-.42-.102-.572-.147-.648a1.395 1.395 0 0 0-.51-.51c-.074-.044-.229-.108-.647-.147a23.783 23.783 0 0 0-1.911-.04c-.895 0-1.474 0-1.91.04-.42.037-.572.102-.648.147a1.395 1.395 0 0 0-.51.51c-.045.074-.11.229-.147.647-.039.438-.04 1.016-.04 1.911v5.116Zm-6.511-22.79a2.326 2.326 0 1 0 4.65 0 1.395 1.395 0 1 1 2.791 0 2.325 2.325 0 1 0 4.652 0 1.395 1.395 0 1 1 2.79 0 2.326 2.326 0 1 0 4.651 0 1.396 1.396 0 0 1 2.791 0 2.327 2.327 0 0 0 4.153 1.438c.212-.268.316-.636.256-1.213-.06-.6-.28-1.28-.573-2.02l-2.59-6.546c-.498-.995-.831-1.656-1.14-2.14-.297-.468-.51-.671-.718-.8-.206-.13-.484-.228-1.036-.286-.584-.06-1.34-.061-2.486-.061H12.076c-1.148 0-1.903 0-2.486.061-.552.058-.83.158-1.036.287-.208.128-.42.33-.718.8-.31.483-.642 1.144-1.14 2.14l-2.59 6.544c-.293.74-.514 1.422-.573 2.02-.058.577.044.946.256 1.214a2.325 2.325 0 0 0 4.153-1.438 1.395 1.395 0 1 1 2.79 0Z" clip-rule="evenodd"/>
</svg>