<svg xmlns="http://www.w3.org/2000/svg" fill="none" viewBox="0 0 20 20">
    <path fill="currentColor" d="M16.636 3.35a9.282 9.282 0 0 0-6.6-2.726C4.894.626.704 4.795.7 9.915c0 1.639.431 3.234 1.245 4.646l-1.32 4.815 4.949-1.291a9.372 9.372 0 0 0 4.461 1.13h.005c5.142 0 9.33-4.17 9.335-9.292a9.22 9.22 0 0 0-2.74-6.571Zm-6.6 14.292a7.764 7.764 0 0 1-3.951-1.078l-.283-.17-2.936.767.784-2.85-.183-.295A7.662 7.662 0 0 1 2.28 9.909c0-4.25 3.481-7.716 7.759-7.716a7.753 7.753 0 0 1 7.169 4.767c.39.938.589 1.943.586 2.957-.005 4.264-3.485 7.725-7.76 7.725Zm4.255-5.782c-.232-.116-1.377-.678-1.593-.757-.214-.076-.37-.116-.524.116-.156.23-.604.757-.738.908-.134.156-.273.173-.506.059-.232-.118-.984-.361-1.874-1.155-.695-.615-1.16-1.377-1.299-1.608-.134-.232-.012-.356.104-.472.102-.103.232-.272.349-.405.117-.134.156-.232.233-.387.076-.157.04-.29-.018-.407-.059-.116-.524-1.26-.72-1.722-.189-.456-.38-.393-.524-.399-.135-.008-.291-.008-.448-.008a.861.861 0 0 0-.622.29c-.215.232-.814.793-.814 1.938s.836 2.245.954 2.401c.115.156 1.64 2.498 3.982 3.506.553.24.989.382 1.33.49.558.178 1.063.151 1.466.094.447-.068 1.378-.563 1.575-1.105.193-.544.193-1.008.134-1.105-.058-.099-.214-.156-.447-.272Z"/>
</svg>