<svg xmlns="http://www.w3.org/2000/svg" fill="none" viewBox="0 0 24 25">
    <path stroke="currentColor" stroke-linecap="round" stroke-linejoin="round" stroke-width="2" d="m9.48 18.869 1.44 4.028m-1.44-4.028-3-.738m3 .738 1.834-2.486M3.394 1.93l.583 1.612m1.046 10.543 3 .754 1.851-2.486m-6.291-2.297 3 .737 1.834-2.468M2.126 6.028l3 .738L6.977 4.28m9.326 13.56-.96 3.857m.96-3.857-1.937-2.126m1.937 2.126 2.691-.96m1.32-15.24-.377 1.543m-4.611 8.674 1.92 2.126 2.708-.977M16.286 8l1.92 2.126 2.708-.978m-3.668-5.005 1.92 2.125 2.708-.977"/>
</svg>