<svg xmlns="http://www.w3.org/2000/svg" xml:space="preserve" x="0" y="0" style="enable-background:new 0 0 1080 1080"
    version="1.1" viewBox="0 0 1080 1080" shape-rendering="auto">
    <style>
        <style>.st0 {
            fill: #503C2D;
        }

        @media (prefers-color-scheme: dark) {
            .st0 {
                fill: #ffeccc;
            }
        }
    </style>

    </style>
    <path
        d="M918.7 694.2h-6.3c-11.2.1-22.2.8-33.1 1.8C734.8 709.7 612 798.2 549.6 922.5c-3.4 6.8-6.6 13.6-9.6 20.5-3-7-6.2-13.8-9.6-20.5C468 798.2 345.1 709.7 200.6 696c-10.9-1.1-21.9-1.7-33.1-1.8h-6.3c-9.6 0-19.1.3-28.5 1 .4 2.6.9 5.1 1.3 7.7 1.7 9 3.7 17.8 5.9 26.5 42.3 164.4 182.4 289.1 354.2 308.2 5.7.7 11.4 1.2 17.2 1.6 7.4.5 14.8.9 22.3 1h12.6c7.5-.1 14.9-.4 22.3-1 5.8-.4 11.5-.9 17.2-1.6 171.8-19 311.9-143.8 354.2-308.2 2.2-8.8 4.2-17.6 5.9-26.5.5-2.6.9-5.1 1.3-7.7-9.3-.7-18.9-1.1-28.4-1zm-400 310.7c-5.8-.3-11.7-.8-17.4-1.4-156-15.9-284-126.9-325.7-274.5 152.7 5.7 282.3 102.2 336.8 237.4 3.5 8.7 6.7 17.6 9.6 26.6 1.3 4.1 2.5 8.1 3.7 12.2-2.3-.1-4.6-.2-7-.3zm60-1.4c-5.8.6-11.6 1.1-17.4 1.4-2.3.2-4.6.2-6.9.3 1.1-4.1 2.4-8.2 3.7-12.2 2.8-9 6.1-17.9 9.6-26.6 54.5-135.2 184-231.7 336.7-237.4-41.6 147.5-169.7 258.6-325.7 274.5zM264.6 382.9V442c-3.8 1.7-7.5 3.7-11 5.8-9.1 5.7-17 13-23.4 21.6v-86.5c0-8.7-3.1-16.6-8.4-22.6-6.3-7.4-15.6-12-26-12-19 0-34.4 15.5-34.4 34.6v130c0 11.9 3 23.1 8.3 32.9 3.1 5.8 7 11 11.5 15.6.3.3.5.6.8.9l14 14.1 12.2 12.3c8.2 7.6 14.5 17.2 18.3 28.1 2.4 7.1 3.8 14.8 3.8 22.7v43.1c-4.5-.8-9-1.4-13.5-2-6.9-.9-13.9-1.7-20.9-2.2v-39c0-9-3.4-17.1-9-23.3-.7-.8-1.5-1.6-2.3-2.4L158.9 588l-3.5-3.5c-3.7-3.9-7.1-8.1-10.1-12.5-4.7-6.8-8.7-14.2-11.6-22.1-4.4-11.5-6.8-24-6.8-37v-130c0-38.2 30.8-69.2 68.9-69.2 19.3 0 36.7 8 49.2 20.8 8.4 8.6 14.6 19.5 17.6 31.6 1.3 5.4 2 11 2 16.8z"
        class="st0" shape-rendering="auto" />
    <path
        d="M402.3 570.3V751c-11.1-7.6-22.6-14.6-34.4-21.1V570.3c0-8.7-1.6-16.9-4.5-24.6-3.5-9.2-8.9-17.5-15.7-24.4l-14.4-14.5-8-8c-1.2-1.5-2.6-2.9-4-4.1-6-5.1-13.7-8.2-22.2-8.2-1.7 0-3.3.1-5 .4-12.6 1.9-23 10.5-27.3 22.2-1.4 3.8-2.1 7.8-2.1 12 0 9.6 3.8 18.2 10.1 24.5l9.7 9.8L299 570l-17.9 18-6.5 6.5-17.8-17.9.6-.3c-2.5-1.9-4.9-4-7.1-6.2-6.8-6.9-12.2-15.2-15.7-24.4-2.9-7.6-4.5-15.9-4.5-24.6 0-13.3 3.8-25.8 10.3-36.4 7.4-12 18.3-21.5 31.3-27.2 3-1.3 6.1-2.4 9.3-3.3 5.7-1.6 11.8-2.4 18-2.4 5.6 0 11 .7 16.2 1.9 11.1 2.7 21.2 8.1 29.4 15.4l6 6 21.5 21.6c4.6 4.7 8.9 9.8 12.6 15.3 11.2 16.6 17.7 36.6 17.7 58l-.1.3zM815.4 382.9V442c3.8 1.7 7.5 3.7 11 5.8 9.1 5.7 17 13 23.4 21.6v-86.5c0-8.7 3.1-16.6 8.4-22.6 6.3-7.4 15.6-12 26-12 19 0 34.4 15.5 34.4 34.6v130c0 11.9-3 23.1-8.3 32.9-3.1 5.8-7 11-11.5 15.6-.3.3-.5.6-.8.9l-14 14.1-12.2 12.3c-8.2 7.6-14.5 17.2-18.3 28.1-2.4 7.1-3.8 14.8-3.8 22.7v43.1c4.5-.8 9-1.4 13.5-2 6.9-.9 13.9-1.7 20.9-2.2v-39c0-9 3.4-17.1 9-23.3.7-.8 1.5-1.6 2.3-2.4L921 588l3.5-3.5c3.7-3.9 7.1-8.1 10.1-12.5 4.7-6.8 8.7-14.2 11.6-22.1 4.4-11.5 6.8-24 6.8-37v-130c0-38.2-30.8-69.2-68.9-69.2-19.3 0-36.7 8-49.2 20.8-8.4 8.6-14.6 19.5-17.6 31.6-1.3 5.4-2 11-2 16.8h.1z"
        class="st0" shape-rendering="auto" />
    <path
        d="M677.7 570.3V751c11.1-7.6 22.6-14.6 34.4-21.1V570.3c0-8.7 1.6-16.9 4.5-24.6 3.5-9.2 8.9-17.5 15.7-24.4l14.4-14.5 8-8c1.2-1.5 2.6-2.9 4-4.1 6-5.1 13.7-8.2 22.2-8.2 1.7 0 3.3.1 5 .4 12.6 1.9 23 10.5 27.3 22.2 1.4 3.8 2.1 7.8 2.1 12 0 9.6-3.8 18.2-10.1 24.5l-9.7 9.8-14.4 14.6 17.9 18 6.5 6.5 17.8-17.9-.6-.3c2.5-1.9 4.9-4 7.1-6.2 6.8-6.9 12.2-15.2 15.7-24.4 2.9-7.6 4.5-15.9 4.5-24.6 0-13.3-3.8-25.8-10.3-36.4-7.4-12-18.3-21.5-31.3-27.2-3-1.3-6.1-2.4-9.3-3.3-5.7-1.6-11.8-2.4-18-2.4-5.6 0-11 .7-16.2 1.9-11.1 2.7-21.2 8.1-29.4 15.4l-6 6-21.5 21.6c-4.6 4.7-8.9 9.8-12.6 15.3-11.2 16.6-17.7 36.6-17.7 58v.3zM636.9 284.4l-.4.4c-4.4 4.4-8.9 8.4-13.5 12.2-45.4 36.1-113.2 61.6-174.7 56.7-.7 0-1.5-.1-2.2-.2-1.2-.7-2.3-2.3-3-4.2-.7-2-.8-3.9-.3-5.2.5-.6 1-1.1 1.6-1.6 44-43.5 112.2-67.7 170.1-69.4 6 0 12 0 18.2.6h.6c1.5.3 3.1 2.1 4 4.6.9 2.5.8 4.9-.2 6.1h-.2zM637 457.3l-.4.4c-4.3 4.4-8.9 8.4-13.5 12.2-45.4 36.1-113.2 61.6-174.7 56.7-.7 0-1.5-.1-2.2-.2-1.2-.7-2.3-2.3-3.1-4.2-.7-2-.8-3.9-.3-5.2.5-.5 1-1.1 1.6-1.6 44-43.5 112.2-67.7 170.1-69.4 6 0 12 .1 18.2.6h.6c1.4.3 3.1 2.1 4 4.6.9 2.5.8 4.9-.2 6.1h-.1zM637 630.2l-.4.4c-4.3 4.4-8.9 8.4-13.5 12.2-45.4 36.1-113.2 61.6-174.7 56.7-.7 0-1.5-.1-2.2-.2-1.2-.7-2.3-2.3-3.1-4.2-.7-2-.8-3.9-.3-5.2.5-.5 1-1.1 1.6-1.6 44-43.5 112.2-67.7 170.1-69.4 6 0 12 0 18.2.6h.6c1.4.3 3.1 2.1 4 4.6.9 2.5.8 4.9-.2 6.1h-.1zM732.5 173.8c-6.4 1.3-12.7 2.3-18.8 3.2l-4.2.6c21.7 22.9 38.6 50.4 48.5 81.5 5.8 18.2 9.3 37.1 9.9 56.2.2 7.6.6 22.9.9 30.5.9 29.6 2.3 62.4 3.7 91.9h16.8c1.7-29.5 2.6-62.2 3.7-91.9.1-5.2.6-17.9.7-23 1.8-58.7-16.9-110.7-48.8-151.9-4 1.1-8.3 2-12.4 2.9zM705.9 130.7c-61.3-50-146.8-71.8-230.2-50.9C368 104.9 281.9 206.2 286 319c.2 7.1.5 19.6.8 26.8 1 29.6 2 62.4 3.8 91.9h16.8c1.1-20.4 1.9-40.8 2.7-61.2.6-17.3 1.5-44 1.9-61.1 4-120.2 110.7-210.9 227.9-209.5 46.7-.6 92.5 13.7 130.7 39.1 11.6-6.6 23.7-10.5 35.3-14.3z"
        class="st0" shape-rendering="auto" />
    <path
        d="M647 188.2c-1.6 3.7 3.3 6.5 5.8 3.4 7.7-9.4 18.1-16.5 29.5-20.7 15.3-5 31.6-5.8 47.8-9.1 16.5-3.4 33.3-8.3 46.9-20.5 14.6-13.6 22.7-33.2 20.5-53.8-1.5-15.8-12.1-31.6-26.3-39.2-9.7-5.2-21.1-8.4-32.3-8.4-8.6 0-17.2 1.9-25.1 6.2-11.8 6.4-20 19.2-20.6 32.4-1 9.8 1.4 20.7 8.8 27.8 5.4 5.3 11.9 7.4 17.4 8.2 3.5.5 5.3-4.1 2.4-6.2-4.9-3.6-8.9-8.2-9.6-14.1-.6-11.9 7.3-22.3 19.6-22.3h.9c8.5.2 20.4 3.3 26.9 9.7 9.7 10.2 5.5 28.6-3.2 38.1-8.1 8.8-20.7 13.8-32.6 18-16 5.7-33.3 9.7-48.4 18.8-12.1 7.5-22.6 18.6-28.4 31.7z"
        class="st0" shape-rendering="auto" />
</svg>